<?xml version="1.0" encoding="UTF-8"?><svg id="Calque_1" xmlns="http://www.w3.org/2000/svg" viewBox="0 0 210.66 40"><defs><style>.cls-1{fill:#26507d;}.cls-1,.cls-2,.cls-3{stroke-width:0px;}.cls-2{fill:#fff;}.cls-3{fill:#008a8c;}</style></defs><path class="cls-1" d="m49.24,32.34V8.33h9.65c4.08,0,7.08,1.01,9,3.04,1.92,2.03,2.88,5.02,2.88,8.98s-.96,6.92-2.88,8.95c-1.92,2.03-4.92,3.04-9,3.04h-9.65Zm5.83-4.5h3.13c2.16,0,3.8-.6,4.91-1.8,1.12-1.2,1.67-3.1,1.67-5.69s-.56-4.55-1.67-5.74c-1.12-1.19-2.75-1.78-4.91-1.78h-3.13v15.01Z"/><path class="cls-1" d="m81.67,32.88c-1.1,0-2.14-.1-3.11-.31-.97-.2-1.82-.54-2.56-1.01-.73-.47-1.3-1.1-1.71-1.91s-.61-1.81-.61-3.01c0-1.13.23-2.11.7-2.95.47-.84,1.18-1.49,2.14-1.94s2.17-.68,3.64-.68c.82,0,1.61.08,2.38.25.77.17,1.46.4,2.07.68s1.1.6,1.46.94l.22,2.59c-.48-.29-1.06-.52-1.73-.68-.67-.17-1.39-.25-2.16-.25-1.18,0-2.03.17-2.57.52s-.81.89-.81,1.64c0,.46.13.86.4,1.22.26.36.62.64,1.06.83.44.19.91.29,1.39.29,1.22,0,2.08-.08,2.57-.25.49-.17.74-.5.74-1.01v-6.7c0-1.1-.35-1.9-1.06-2.39-.71-.49-1.71-.74-3.01-.74-1.06,0-2.12.19-3.19.56-1.07.37-1.94.82-2.61,1.35v-4.75c.62-.38,1.59-.74,2.9-1.08,1.31-.34,2.78-.5,4.41-.5.58,0,1.21.05,1.91.14.7.1,1.39.27,2.09.52.7.25,1.34.62,1.93,1.1.59.48,1.06,1.09,1.42,1.84.36.74.54,1.67.54,2.77l-.04,8.6c0,1.03-.35,1.87-1.04,2.5-.7.64-1.7,1.1-3.01,1.39-1.31.29-2.89.43-4.73.43Z"/><path class="cls-1" d="m102.7,33.06c-2.11,0-3.68-.5-4.72-1.49-1.03-1-1.55-2.41-1.55-4.23v-9.11h-2.66v-4.1h2.66v-5h5.62v5h4v4.1h-4v8.42c0,.62.13,1.09.4,1.39.26.3.71.45,1.33.45.36,0,.76-.07,1.19-.22.43-.14.79-.32,1.08-.54v4.61c-.5.26-1.05.45-1.64.56-.59.11-1.16.16-1.71.16Z"/><path class="cls-1" d="m117.13,32.88c-1.1,0-2.14-.1-3.11-.31-.97-.2-1.82-.54-2.56-1.01-.73-.47-1.3-1.1-1.71-1.91s-.61-1.81-.61-3.01c0-1.13.23-2.11.7-2.95.47-.84,1.18-1.49,2.14-1.94s2.17-.68,3.64-.68c.82,0,1.61.08,2.38.25.77.17,1.46.4,2.07.68s1.1.6,1.46.94l.22,2.59c-.48-.29-1.06-.52-1.73-.68-.67-.17-1.39-.25-2.16-.25-1.18,0-2.03.17-2.57.52s-.81.89-.81,1.64c0,.46.13.86.4,1.22.26.36.62.64,1.06.83.44.19.91.29,1.39.29,1.22,0,2.08-.08,2.57-.25.49-.17.74-.5.74-1.01v-6.7c0-1.1-.35-1.9-1.06-2.39-.71-.49-1.71-.74-3.01-.74-1.06,0-2.12.19-3.19.56-1.07.37-1.94.82-2.61,1.35v-4.75c.62-.38,1.59-.74,2.9-1.08,1.31-.34,2.78-.5,4.41-.5.58,0,1.21.05,1.91.14.7.1,1.39.27,2.09.52.7.25,1.34.62,1.93,1.1.59.48,1.06,1.09,1.42,1.84.36.74.54,1.67.54,2.77l-.04,8.6c0,1.03-.35,1.87-1.04,2.5-.7.64-1.7,1.1-3.01,1.39-1.31.29-2.89.43-4.73.43Z"/><path class="cls-1" d="m135.67,32.34l-7.6-18.22h5.83l5.51,14.04-1.3.04,4.9-14.08h5.65l-7.6,18.22h-5.4Z"/><path class="cls-1" d="m151.94,11.64v-4.14h5.54v4.14h-5.54Zm.11,20.7V14.37h5.36l.04,17.96h-5.4Z"/><path class="cls-1" d="m161.48,32.34v-4.25l9.76-11.05.54,1.12h-10.08v-4.03h14.26v4.18l-9.07,11.12-.18-1.37h9.25v4.28h-14.47Z"/><path class="cls-1" d="m187.4,33.06c-2.11,0-3.68-.5-4.72-1.49-1.03-1-1.55-2.41-1.55-4.23v-9.11h-2.66v-4.1h2.66v-5h5.62v5h4v4.1h-4v8.42c0,.62.13,1.09.4,1.39.26.3.71.45,1.33.45.36,0,.76-.07,1.19-.22.43-.14.79-.32,1.08-.54v4.61c-.5.26-1.05.45-1.64.56-.59.11-1.16.16-1.71.16Z"/><path class="cls-1" d="m201.84,32.88c-1.1,0-2.14-.1-3.11-.31-.97-.2-1.82-.54-2.56-1.01-.73-.47-1.3-1.1-1.71-1.91s-.61-1.81-.61-3.01c0-1.13.23-2.11.7-2.95.47-.84,1.18-1.49,2.14-1.94s2.17-.68,3.64-.68c.82,0,1.61.08,2.38.25.77.17,1.46.4,2.07.68s1.1.6,1.46.94l.22,2.59c-.48-.29-1.06-.52-1.73-.68-.67-.17-1.39-.25-2.16-.25-1.18,0-2.03.17-2.57.52s-.81.89-.81,1.64c0,.46.13.86.4,1.22.26.36.62.64,1.06.83.44.19.91.29,1.39.29,1.22,0,2.08-.08,2.57-.25.49-.17.74-.5.74-1.01v-6.7c0-1.1-.35-1.9-1.06-2.39-.71-.49-1.71-.74-3.01-.74-1.06,0-2.12.19-3.19.56-1.07.37-1.94.82-2.61,1.35v-4.75c.62-.38,1.59-.74,2.9-1.08,1.31-.34,2.78-.5,4.41-.5.58,0,1.21.05,1.91.14.7.1,1.39.27,2.09.52.7.25,1.34.62,1.93,1.1.59.48,1.06,1.09,1.42,1.84.36.74.54,1.67.54,2.77l-.04,8.6c0,1.03-.35,1.87-1.04,2.5-.7.64-1.7,1.1-3.01,1.39-1.31.29-2.89.43-4.73.43Z"/><path class="cls-3" d="m40,0h-19.76c-.08,0-.16,0-.24,0C9.03,0,.13,8.83,0,19.76h0v20.24h20.24c10.94-.13,19.76-9.03,19.76-20,0-.08,0-.16,0-.24h0V0Z"/><path class="cls-2" d="m20,8s-.08,0-.12,0v6.31s.08,0,.12,0c3.15,0,5.7,2.55,5.7,5.7s-2.55,5.7-5.7,5.7-5.63-2.49-5.69-5.58h-6.31c.07,6.57,5.41,11.88,12,11.88s12-5.37,12-12-5.37-12-12-12Z"/></svg>